<?xml version="1.0" standalone="no"?>
<!DOCTYPE svg PUBLIC "-//W3C//DTD SVG 1.1//EN" "http://www.w3.org/Graphics/SVG/1.1/DTD/svg11.dtd">
<svg width="100%" height="100%" viewBox="0 0 800 50" version="1.1" xmlns="http://www.w3.org/2000/svg" xmlns:xlink="http://www.w3.org/1999/xlink" xml:space="preserve" style="fill-rule:evenodd;clip-rule:evenodd;stroke-linejoin:round;stroke-miterlimit:1.41421;">
    <g>
        <g id="base00">
            <path d="M25,0L25,720" style="fill:black;fill-rule:nonzero;"/>
            <rect x="0" y="0" width="50" height="720" style="fill:rgb(45,45,45);"/>
        </g>
        <g id="base01">
            <path d="M75,0L75,720" style="fill:black;fill-rule:nonzero;"/>
            <rect x="50" y="0" width="50" height="720" style="fill:rgb(57,57,57);"/>
        </g>
        <g id="base02">
            <path d="M125,0L125,720" style="fill:black;fill-rule:nonzero;"/>
            <rect x="100" y="0" width="50" height="720" style="fill:rgb(81,81,81);"/>
        </g>
        <g id="base03">
            <path d="M175,0L175,720" style="fill:black;fill-rule:nonzero;"/>
            <rect x="150" y="0" width="50" height="720" style="fill:rgb(116,115,105);"/>
        </g>
        <g id="base04">
            <path d="M225,0L225,720" style="fill:black;fill-rule:nonzero;"/>
            <rect x="200" y="0" width="50" height="720" style="fill:rgb(160,159,147);"/>
        </g>
        <g id="base05">
            <path d="M275,0L275,720" style="fill:black;fill-rule:nonzero;"/>
            <rect x="250" y="0" width="50" height="720" style="fill:rgb(211,208,200);"/>
        </g>
        <g id="base06">
            <path d="M325,0L325,720" style="fill:black;fill-rule:nonzero;"/>
            <rect x="300" y="0" width="50" height="720" style="fill:rgb(232,230,223);"/>
        </g>
        <g id="base07">
            <path d="M375,0L375,720" style="fill:black;fill-rule:nonzero;"/>
            <rect x="350" y="0" width="50" height="720" style="fill:rgb(242,240,236);"/>
        </g>
        <g id="base08">
            <path d="M425,0L425,720" style="fill:black;fill-rule:nonzero;"/>
            <rect x="400" y="0" width="50" height="720" style="fill:rgb(242,119,122);"/>
        </g>
        <g id="base081" transform="matrix(1,0,0,1,-399.815,0)">
            <path d="M425,0L425,720" style="fill:black;fill-rule:nonzero;"/>
            <rect x="400" y="0" width="50" height="720" style="fill:rgb(242,119,122);"/>
        </g>
        <g id="base09">
            <path d="M475,0L475,720" style="fill:black;fill-rule:nonzero;"/>
            <rect x="450" y="0" width="50" height="720" style="fill:rgb(249,145,87);"/>
        </g>
        <g id="base091" transform="matrix(1,0,0,1,-399.815,0)">
            <path d="M475,0L475,720" style="fill:black;fill-rule:nonzero;"/>
            <rect x="450" y="0" width="50" height="720" style="fill:rgb(249,145,87);"/>
        </g>
        <g id="base0A">
            <path d="M525,0L525,720" style="fill:black;fill-rule:nonzero;"/>
            <rect x="500" y="0" width="50" height="720" style="fill:rgb(255,204,102);"/>
        </g>
        <g id="base0A1" transform="matrix(1,0,0,1,-399.815,0)">
            <path d="M525,0L525,720" style="fill:black;fill-rule:nonzero;"/>
            <rect x="500" y="0" width="50" height="720" style="fill:rgb(255,204,102);"/>
        </g>
        <g id="base0B">
            <path d="M575,0L575,720" style="fill:black;fill-rule:nonzero;"/>
            <rect x="550" y="0" width="50" height="720" style="fill:rgb(153,204,153);"/>
        </g>
        <g id="base0B1" transform="matrix(1,0,0,1,-399.815,0)">
            <path d="M575,0L575,720" style="fill:black;fill-rule:nonzero;"/>
            <rect x="550" y="0" width="50" height="720" style="fill:rgb(153,204,153);"/>
        </g>
        <g id="base0C">
            <path d="M625,0L625,720" style="fill:black;fill-rule:nonzero;"/>
            <rect x="600" y="0" width="50" height="720" style="fill:rgb(102,204,204);"/>
        </g>
        <g id="base0C1" transform="matrix(1,0,0,1,-399.815,0)">
            <path d="M625,0L625,720" style="fill:black;fill-rule:nonzero;"/>
            <rect x="600" y="0" width="50" height="720" style="fill:rgb(102,204,204);"/>
        </g>
        <g id="base0D">
            <path d="M675,0L675,720" style="fill:black;fill-rule:nonzero;"/>
            <rect x="650" y="0" width="50" height="720" style="fill:rgb(102,153,204);"/>
        </g>
        <g id="base0D1" transform="matrix(1,0,0,1,-399.815,0)">
            <path d="M675,0L675,720" style="fill:black;fill-rule:nonzero;"/>
            <rect x="650" y="0" width="50" height="720" style="fill:rgb(102,153,204);"/>
        </g>
        <g id="base0E">
            <path d="M725,0L725,720" style="fill:black;fill-rule:nonzero;"/>
            <rect x="700" y="0" width="50" height="720" style="fill:rgb(204,153,204);"/>
        </g>
        <g id="base0E1" transform="matrix(1,0,0,1,-399.815,0)">
            <path d="M725,0L725,720" style="fill:black;fill-rule:nonzero;"/>
            <rect x="700" y="0" width="50" height="720" style="fill:rgb(204,153,204);"/>
        </g>
        <g id="base0F">
            <path d="M775,0L775,720" style="fill:black;fill-rule:nonzero;"/>
            <rect x="750" y="0" width="50" height="720" style="fill:rgb(210,123,83);"/>
        </g>
        <g id="base0F1" transform="matrix(1,0,0,1,-399.815,0)">
            <path d="M775,0L775,720" style="fill:black;fill-rule:nonzero;"/>
            <rect x="750" y="0" width="50" height="720" style="fill:rgb(210,123,83);"/>
        </g>
    </g>
</svg>
